<svg width="105" height="105" viewBox="0 0 105 105" fill="none" xmlns="http://www.w3.org/2000/svg">
<g clip-path="url(#clip0_3_40)">
<path d="M35.2157 7.77795C35.2738 6.91669 35.3728 1.49879 35.8087 1.13524C36.2782 0.743646 44.0527 0.889582 45.2229 0.938375C47.1099 1.01706 48.9725 1.25675 50.8681 1.24897C52.1046 1.24389 53.3939 0.812126 54.6149 0.960216C54.9829 1.00486 55.8445 1.30678 56.0942 1.56392C56.3421 2.48611 56.2285 6.9642 56.0069 7.96739C54.4958 8.10779 50.8642 8.24988 49.4236 7.98312C49.3076 9.9278 49.1634 11.8037 49.2126 13.7625C49.2262 14.3055 48.7376 14.879 48.1664 14.8854C46.1441 14.8807 43.9932 14.8855 41.9806 14.8464C41.899 16.7618 42.1101 19.8514 41.4941 21.628C41.4076 21.8774 39.2248 21.5633 38.8303 21.5947C37.5586 21.696 36.3667 21.7746 35.0756 21.71C34.8632 23.8338 34.9355 26.872 34.9377 29.0705L34.9344 40.2556L34.9406 50.5933C34.9439 51.4459 34.915 54.9543 35.1043 55.5878C35.4282 55.7223 35.9757 55.9552 36.36 56.002C38.0676 56.21 39.8833 56.08 41.6075 56.0812C41.6666 56.1427 41.7172 56.1952 41.7591 56.2388C42.0356 57.3096 41.618 62.5508 42.1091 63.0881C42.3934 63.1809 42.807 63.0923 43.2204 63.1269L43.2682 63.2476C44.1085 63.3081 47.3953 63.5418 48.0601 63.3293C48.5055 63.3736 48.8062 63.413 49.2523 63.382C49.2084 64.0467 49.1561 68.9831 49.2672 69.4164C49.3302 70.2198 49.3235 70.3147 50.2346 70.341C52.682 70.4114 55.1338 70.3975 57.5823 70.3992L70.008 70.4013L77.5431 70.3961C79.2241 70.3919 80.9874 70.3809 82.671 70.2085C82.8544 70.1898 83.1763 69.975 83.3416 69.8675L83.3737 69.7431C83.2005 69.6682 83.1687 69.6423 82.9748 69.6525C83.1152 69.5556 83.3835 69.5099 83.564 69.4643C84.149 68.6541 83.2294 63.8818 84.0295 63.2913L84.3709 63.3504C85.354 63.4037 89.8247 63.3649 90.594 62.9572L90.6279 62.6404C90.6527 61.6507 90.6073 56.752 90.8616 56.1917C92.6081 55.7841 95.1593 56.4608 97.5181 55.6776C97.7252 53.7927 97.5986 51.1877 97.6482 49.2273C99.5707 49.309 101.904 49.2158 103.845 49.1606C104.191 55.5009 103.925 63.2209 103.872 69.6384C102.91 69.6353 98.186 69.4785 97.7505 70.0096C96.7113 71.2769 97.9392 81.867 97.5874 82.3735C97.1818 82.6735 96.9624 82.6857 97.0612 83.2264C96.5898 83.5839 91.7818 83.4536 90.9008 83.4606C90.9825 84.4679 90.7292 89.3422 90.2791 90.1047C89.6351 90.4926 84.7154 90.423 83.9008 90.2695C84.0137 92.1289 84.0317 95.3359 83.8453 97.1341C81.0213 97.2993 78.0109 97.1664 75.1553 97.1968C74.0785 97.2082 70.8921 97.3052 70.0801 97.19C70.1317 98.2202 70.331 103.016 69.807 103.626L69.4579 103.255C69.0912 103.518 69.4943 103.895 68.3949 103.986C66.6435 104.132 64.8757 104.057 63.1167 104.051L53.3044 104.035L42.2584 104.034C41.5291 104.035 36.6168 104.176 35.6945 103.763C35.5323 103.69 35.4626 102.191 35.4793 101.961C35.4649 100.368 35.5109 98.7616 35.162 97.1925C33.5018 97.3207 31.0802 97.2058 29.3604 97.1872C26.8008 97.176 24.2411 97.2004 21.6823 97.2604C21.6887 95.3795 21.7793 92.1702 21.3702 90.3863C20.9007 90.2431 15.5815 90.3495 14.7372 90.3524C14.7548 89.2088 14.8308 84.795 14.5357 83.9308L14.4907 83.5555C14.0123 83.3427 8.77259 83.4069 7.81987 83.4014C7.63822 78.8855 7.95762 74.378 7.64828 69.7404C5.58956 69.5971 3.04787 69.6584 0.945873 69.6394C0.805317 66.5179 0.975559 63.2889 0.927867 60.1603C0.802849 51.9589 1.07142 43.5572 0.883789 35.3727C2.11773 35.4734 6.62258 35.5367 7.56779 34.9713C7.95608 33.8485 7.80494 23.4946 7.80956 21.5864C9.89452 21.581 12.0551 21.6123 14.1338 21.553C14.9874 20.8962 14.7636 15.908 14.7568 14.666C16.8555 14.7228 19.1412 14.6526 21.2665 14.6554C21.8019 12.9874 21.7766 9.60814 21.6995 7.80613L31.5009 7.79645C32.5453 7.78839 34.2412 7.85858 35.2157 7.77795Z" fill="white" fill-opacity="0.8"/>
<path d="M49.2671 69.4166C51.1262 69.1763 56.1721 69.3037 58.2229 69.3042L80.1014 69.3054C81.2389 69.3123 82.5024 69.655 82.9747 69.6527C83.1686 69.6425 83.2003 69.6683 83.3735 69.7433L83.3414 69.8677C83.1761 69.9752 82.8543 70.19 82.6708 70.2087C80.9872 70.3811 79.224 70.3921 77.543 70.3963L70.0079 70.4015L57.5822 70.3994C55.1337 70.3976 52.6818 70.4116 50.2344 70.3412C49.3234 70.3149 49.33 70.22 49.2671 69.4166Z" fill="white" fill-opacity="0.8"/>
<path d="M84.3706 63.3506C84.6972 63.3062 84.9896 63.2558 85.3137 63.1951L85.3014 63.1044C84.8246 63.016 84.3726 62.9312 83.8989 62.8219L83.9613 62.6108C85.8407 61.9625 89.6055 63.04 90.6276 62.6406L90.5937 62.9574C89.8245 63.3651 85.3537 63.4038 84.3706 63.3506Z" fill="white" fill-opacity="0.8"/>
<path d="M43.2202 63.1269C45.2215 63.0777 46.2207 62.4231 47.8499 62.4947C47.8865 62.6763 47.9813 63.1894 48.0599 63.3292C47.3951 63.5418 44.1083 63.3081 43.268 63.2475L43.2202 63.1269Z" fill="white" fill-opacity="0.8"/>
<path d="M47.8501 62.4951C48.2452 62.5542 48.3885 62.589 48.7863 62.5258C49.2442 62.8059 49.014 62.9777 49.2523 63.3823C48.8063 63.4134 48.5055 63.374 48.0601 63.3296C47.9816 63.1898 47.8867 62.6767 47.8501 62.4951Z" fill="white" fill-opacity="0.8"/>
</g>
<defs>
<clipPath id="clip0_3_40">
<rect width="105" height="105" fill="white"/>
</clipPath>
</defs>
</svg>
